<svg version="1.2" xmlns="http://www.w3.org/2000/svg" viewBox="0 0 881 869" width="881" height="869">
	<style>
		.s0 { fill: #1fdd59 } 
		.s1 { fill: #000000 } 
	</style>
	<g id="_Artboards_">
	</g>
	<g id="Objects">
		<g id="&lt;Group&gt;">
			<path id="&lt;Path&gt;" class="s0" d="m-91.34-489.51c0 225.02-182.42 407.44-407.44 407.44-225.03 0-407.45-182.42-407.45-407.44 0-225.03 182.42-407.45 407.45-407.45 225.02 0 407.44 182.42 407.44 407.45z"/>
			<g id="&lt;Group&gt;">
				<path id="&lt;Path&gt;" class="s1" d="m-366.2-509.43c3.7 1.71 6.92 4.15 9.23 7.63 4.28 6.46 4.11 15.21 0.84 22.24-3.01 6.45-8.3 11.58-14.25 15.52 3.71 1.71 6.92 4.15 9.23 7.63 4.29 6.46 4.11 15.22 0.84 22.24-2.86 6.16-7.81 11.11-13.43 14.98 3.66 1.46 6.84 3.66 9.05 6.98 3.63 5.47 3.33 12.81 0.71 18.82-6.13 14.11-25.9 26.74-70.14 26.74h-72c-15.97 0-33.27-5.92-47.17-17.13-6.02-4.86-9.53-12.18-9.53-19.91v-122.63c0-7.19 3.06-14 8.34-18.88 16.26-15.06 27.65-39.58 33.78-59.97 8.7-28.95-7.84-57.82 16.51-63.53 24.27-5.69 36.1 15.53 40.58 28.38 10.27 29.49 7.41 63.26-7.48 90.69 35.51-7.46 54.38-9.22 87.7-9.22 11.35 0 24.31 2.19 30.59 11.65 4.29 6.46 4.12 15.21 0.84 22.24-3 6.45-8.29 11.58-14.24 15.53z"/>
				<path id="&lt;Path&gt;" class="s1" d="m-590.12-379.58h-47.03c-7.78 0-14.08-6.3-14.08-14.07v-137.24c0-7.77 6.3-14.07 14.08-14.07h47.03c7.77 0 14.07 6.3 14.07 14.07v137.24c0 7.77-6.3 14.07-14.07 14.07z"/>
			</g>
		</g>
		<g id="&lt;Group&gt;">
			<path id="&lt;Path&gt;" class="s0" d="m23.34-489.51c0-225.03 182.42-407.45 407.44-407.45 225.03 0 407.45 182.42 407.45 407.45 0 225.02-182.42 407.44-407.45 407.44-225.02 0-407.44-182.42-407.44-407.44z"/>
			<g id="&lt;Group&gt;">
				<path id="&lt;Path&gt;" class="s1" d="m288.69-469.6c-3.71-1.71-6.92-4.15-9.23-7.62-4.29-6.46-4.12-15.22-0.84-22.25 3-6.45 8.29-11.58 14.24-15.52-3.7-1.71-6.92-4.15-9.22-7.63-4.29-6.46-4.12-15.21-0.85-22.24 2.87-6.15 7.81-11.11 13.43-14.97-3.66-1.47-6.84-3.67-9.05-6.99-3.63-5.46-3.33-12.8-0.71-18.82 6.14-14.11 25.9-26.74 70.14-26.74h72c15.98 0 33.27 5.92 47.18 17.14 6.02 4.85 9.52 12.17 9.52 19.9v122.63c0 7.19-3.06 14-8.33 18.89-16.26 15.06-27.65 39.57-33.78 59.96-8.71 28.96 7.83 57.82-16.52 63.54-24.27 5.69-36.1-15.54-40.57-28.38-10.27-29.5-7.42-63.27 7.47-90.7-35.5 7.47-54.38 9.22-87.69 9.22-11.36 0-24.32-2.19-30.6-11.64-4.29-6.47-4.11-15.22-0.84-22.25 3-6.45 8.29-11.58 14.25-15.53z"/>
				<path id="&lt;Path&gt;" class="s1" d="m512.61-599.45h47.03c7.77 0 14.07 6.3 14.07 14.08v137.23c0 7.78-6.3 14.08-14.07 14.08h-47.03c-7.77 0-14.08-6.3-14.08-14.08v-137.23c0-7.78 6.31-14.08 14.08-14.08z"/>
			</g>
		</g>
		<g id="&lt;Group&gt;">
			<path id="&lt;Compound Path&gt;" fill-rule="evenodd" class="s0" d="m-91.34 429.51c0 225.03-182.42 407.45-407.44 407.45-225.03 0-407.45-182.42-407.45-407.45 0-225.02 182.42-407.44 407.45-407.44 225.02 0 407.44 182.42 407.44 407.44zm-547.51-331.61c-42.84 18.13-81.33 44.08-114.4 77.15-33.07 33.06-59.02 71.55-77.14 114.4-18.76 44.34-28.26 91.46-28.26 140.06 0 48.61 9.5 95.73 28.26 140.07 18.12 42.84 44.07 81.33 77.14 114.4 33.07 33.07 71.56 59.02 114.4 77.14 44.34 18.76 91.46 28.26 140.07 28.26 48.6 0 95.72-9.5 140.06-28.26 42.85-18.12 81.34-44.07 114.4-77.14 33.07-33.07 59.02-71.56 77.15-114.4 18.75-44.34 28.26-91.46 28.26-140.07 0-48.6-9.51-95.72-28.26-140.06-18.13-42.85-44.08-81.34-77.15-114.4-33.06-33.07-71.55-59.02-114.4-77.15-44.34-18.75-91.46-28.26-140.06-28.26-48.61 0-95.73 9.51-140.07 28.26z"/>
			<g id="&lt;Group&gt;">
				<path id="&lt;Path&gt;" class="s0" d="m-366.2 409.6c3.7 1.71 6.92 4.15 9.23 7.62 4.28 6.46 4.11 15.22 0.84 22.25-3.01 6.45-8.3 11.58-14.25 15.52 3.71 1.71 6.92 4.15 9.23 7.63 4.29 6.46 4.11 15.21 0.84 22.24-2.86 6.15-7.81 11.11-13.43 14.97 3.66 1.47 6.84 3.67 9.05 6.99 3.63 5.46 3.33 12.8 0.71 18.82-6.13 14.11-25.9 26.74-70.14 26.74h-72c-15.97 0-33.27-5.92-47.17-17.14-6.02-4.85-9.53-12.17-9.53-19.9v-122.63c0-7.19 3.06-14 8.34-18.89 16.26-15.06 27.65-39.57 33.78-59.96 8.7-28.96-7.84-57.82 16.51-63.54 24.27-5.69 36.1 15.54 40.58 28.38 10.27 29.5 7.41 63.27-7.48 90.7 35.51-7.47 54.38-9.22 87.7-9.22 11.35 0 24.31 2.19 30.59 11.64 4.29 6.47 4.12 15.22 0.84 22.25-3 6.45-8.29 11.58-14.24 15.53z"/>
			</g>
			<g id="&lt;Group&gt;">
				<g id="&lt;Group&gt;">
					<path id="&lt;Path&gt;" class="s0" d="m-590.12 539.45h-47.03c-7.78 0-14.08-6.3-14.08-14.08v-137.23c0-7.78 6.3-14.08 14.08-14.08h47.03c7.77 0 14.07 6.3 14.07 14.08v137.23c0 7.78-6.3 14.08-14.07 14.08z"/>
				</g>
			</g>
		</g>
		<g id="&lt;Group&gt;">
			<path id="&lt;Compound Path&gt;" fill-rule="evenodd" class="s0" d="m838.23 429.51c0 225.03-182.42 407.45-407.45 407.45-225.02 0-407.44-182.42-407.44-407.45 0-225.02 182.42-407.44 407.44-407.44 225.03 0 407.45 182.42 407.45 407.44zm-547.51-331.61c-42.85 18.13-81.34 44.08-114.4 77.15-33.07 33.06-59.02 71.55-77.15 114.4-18.75 44.34-28.26 91.46-28.26 140.06 0 48.61 9.51 95.73 28.26 140.07 18.13 42.84 44.08 81.33 77.15 114.4 33.06 33.07 71.55 59.02 114.4 77.14 44.34 18.76 91.46 28.26 140.06 28.26 48.61 0 95.73-9.5 140.07-28.26 42.84-18.12 81.33-44.07 114.4-77.14 33.07-33.07 59.02-71.56 77.14-114.4 18.76-44.34 28.26-91.46 28.26-140.07 0-48.6-9.5-95.72-28.26-140.06-18.12-42.85-44.07-81.34-77.14-114.4-33.07-33.07-71.56-59.02-114.4-77.15-44.34-18.75-91.46-28.26-140.07-28.26-48.6 0-95.72 9.51-140.06 28.26z"/>
			<g id="&lt;Group&gt;">
				<g id="&lt;Group&gt;">
					<path id="&lt;Path&gt;" class="s0" d="m288.69 449.43c-3.71-1.71-6.92-4.15-9.23-7.63-4.29-6.46-4.12-15.21-0.84-22.24 3-6.45 8.29-11.58 14.24-15.52-3.7-1.71-6.92-4.15-9.22-7.63-4.29-6.46-4.12-15.22-0.85-22.24 2.87-6.16 7.81-11.11 13.43-14.98-3.66-1.46-6.84-3.66-9.05-6.98-3.63-5.47-3.33-12.81-0.71-18.82 6.14-14.11 25.9-26.74 70.14-26.74h72c15.98 0 33.27 5.92 47.18 17.13 6.02 4.86 9.52 12.18 9.52 19.91v122.63c0 7.19-3.06 14-8.33 18.88-16.26 15.06-27.65 39.58-33.78 59.97-8.71 28.95 7.83 57.82-16.52 63.53-24.27 5.69-36.1-15.53-40.57-28.38-10.27-29.49-7.42-63.26 7.47-90.69-35.5 7.46-54.38 9.22-87.69 9.22-11.36 0-24.32-2.19-30.6-11.65-4.29-6.46-4.11-15.21-0.84-22.24 3-6.45 8.29-11.58 14.25-15.53z"/>
				</g>
			</g>
			<g id="&lt;Group&gt;">
				<g id="&lt;Group&gt;">
					<path id="&lt;Path&gt;" class="s0" d="m512.61 319.58h47.03c7.77 0 14.07 6.3 14.07 14.07v137.24c0 7.77-6.3 14.07-14.07 14.07h-47.03c-7.77 0-14.08-6.3-14.08-14.07v-137.24c0-7.77 6.31-14.07 14.08-14.07z"/>
				</g>
			</g>
		</g>
	</g>
</svg>